<?xml version="1.0" encoding="UTF-8"?>
<svg id="Calque_1" data-name="Calque 1" xmlns="http://www.w3.org/2000/svg" viewBox="0 0 251.49 262.22">
  <defs>
    <style>
      .cls-1 {
        fill: #f6a122;
      }

      .cls-1, .cls-2, .cls-3 {
        stroke-width: 0px;
      }

      .cls-2 {
        fill: none;
      }

      .cls-3 {
        fill: #104f9c;
      }
    </style>
  </defs>
  <path class="cls-2" d="m126.67,123.08l-1.11-2.96c.44.94.82,1.94,1.11,2.96Z"/>
  <path class="cls-2" d="m127.33,124.85h-.21c-.12-.59-.26-1.16-.44-1.73l.65,1.73Z"/>
  <path class="cls-2" d="m207.21,105.7l-.13.35c-1.32-.23-2.69-.35-4.08-.35h4.21Z"/>
  <path class="cls-2" d="m129.7,185.96l-.91-2.43c.08-.13.15-.27.22-.41.17.97.4,1.91.69,2.84Z"/>
  <path class="cls-2" d="m130.58,188.33c-.33-.74-.61-1.51-.85-2.29l.85,2.29Z"/>
  <path class="cls-2" d="m176.85,183.84c-.54,2.58-1.5,5-2.8,7.2l2.8-7.2Z"/>
  <path class="cls-2" d="m197.01,131.95l-.85,2.2c.21-.76.5-1.5.85-2.2Z"/>
  <path class="cls-2" d="m31.37,105.7c-1.88,6.16-3.18,12.56-3.85,19.15H0v-19.15h31.37Z"/>
  <path class="cls-2" d="m126.67,123.08l-1.11-2.96c.44.94.82,1.94,1.11,2.96Z"/>
  <path class="cls-2" d="m127.33,124.85h-.21c-.12-.59-.26-1.16-.44-1.73l.65,1.73Z"/>
  <path class="cls-2" d="m207.21,105.7l-.13.35c-1.32-.23-2.69-.35-4.08-.35h4.21Z"/>
  <path class="cls-2" d="m251.49,105.7v19.15h-23.81c-.67-6.59-1.97-12.99-3.85-19.15h27.66Z"/>
  <path class="cls-2" d="m95.54,39.69c-3.76,1.26-7.43,2.74-10.98,4.43-2.22,1.05-4.4,2.18-6.53,3.4l-10.31-27.61,16.84-6.29,1.1-.41,9.88,26.48Z"/>
  <path class="cls-2" d="m127.33,124.85h-.21c-.12-.59-.26-1.16-.44-1.73l.65,1.73Z"/>
  <path class="cls-2" d="m129.7,185.96l-.91-2.43c.08-.13.15-.27.22-.41.17.97.4,1.91.69,2.84Z"/>
  <path class="cls-2" d="m173.6,248.83l-17.94,6.69-3.27-8.75-4.88-13.09c3.78-.76,7.49-1.73,11.1-2.91,2.46-.79,4.88-1.68,7.25-2.67l7.74,20.73Z"/>
  <path class="cls-2" d="m84.56,226v25.49h-19.58v-37.7c6,4.78,12.57,8.89,19.58,12.21Z"/>
  <path class="cls-2" d="m84.56,0v44.12c-2.22,1.05-4.4,2.18-6.53,3.4-4.59,2.59-8.95,5.54-13.05,8.81V0h19.58Z"/>
  <path class="cls-2" d="m158.61,230.77l-6.22,16-6,15.45-18.16-7.05,7.72-19.87c3.92-.31,7.78-.86,11.56-1.62,3.78-.76,7.49-1.73,11.1-2.91Z"/>
  <path class="cls-2" d="m197.01,131.95l-.85,2.2c.21-.76.5-1.5.85-2.2Z"/>
  <path class="cls-2" d="m207.21,105.7l-.13.35c-1.32-.23-2.69-.35-4.08-.35h4.21Z"/>
  <path class="cls-2" d="m237.48,27.81l-22.38,57.6c-3.83-6.74-8.42-13-13.66-18.65l17.88-46.01,18.16,7.06Z"/>
  <line class="cls-2" x1="99.8" y1="201.31" x2="99.77" y2="205.78"/>
  <line class="cls-2" x1="99.96" y1="174.38" x2="99.92" y2="181.7"/>
  <path class="cls-2" d="m126.67,123.08l-1.11-2.96c.44.94.82,1.94,1.11,2.96Z"/>
  <path class="cls-2" d="m130.58,188.33c-.33-.74-.61-1.51-.85-2.29l.85,2.29Z"/>
  <path class="cls-2" d="m110.33,134.36c-.03-.13-.07-.26-.11-.38l.02.04c.03.11.06.23.09.34Z"/>
  <path class="cls-2" d="m176.85,183.84c-.54,2.58-1.5,5-2.8,7.2l2.8-7.2Z"/>
  <path class="cls-1" d="m223.83,105.7h-20.83c-.73,0-1.45.03-2.16.09-10.7.91-19.71,8.5-21.88,18.76l-.09.3-12.89,33.18-8.68,22.33c-1.65,4.25-7.68,4.21-9.28-.06-.01-.02-.02-.04-.03-.06l-.3-.84s-.02-.05-.02-.07l-7.9-21.14-12.44-33.34-.65-1.73s-.01-.03-.01-.04c-.29-1.02-.67-2.02-1.11-2.96,0-.02-.01-.03-.02-.05,0-.01,0-.02,0-.03,0-.02-.01-.03-.02-.05-3.79-8.38-12.23-14.21-22.03-14.21l-3.74-.08h-15.18v-21.47h-19.58v21.47H31.37c5.99-19.71,17.88-36.85,33.61-49.37,4.1-3.27,8.46-6.22,13.05-8.81,2.13-1.22,4.31-2.35,6.53-3.4,3.55-1.69,7.22-3.17,10.98-4.43,10.07-3.39,20.85-5.22,32.06-5.22,29.19,0,55.47,12.43,73.84,32.29,5.24,5.65,9.83,11.91,13.66,18.65,3.62,6.36,6.57,13.16,8.73,20.29Z"/>
  <path class="cls-2" d="m197.01,131.95l-.85,2.2c.21-.76.5-1.5.85-2.2Z"/>
  <path class="cls-3" d="m228.19,135.06c0,42-25.75,78-62.33,93.04-2.37.99-4.79,1.88-7.25,2.67-3.61,1.18-7.32,2.15-11.1,2.91-3.78.76-7.64,1.31-11.56,1.62-2.75.23-5.54.35-8.35.35-15.4,0-29.99-3.46-43.04-9.65-7.01-3.32-13.58-7.43-19.58-12.21-23.14-18.43-37.97-46.85-37.97-78.73,0-3.45.17-6.85.51-10.21h37.46v42.52c0,13.61,8.01,25.36,19.58,30.76,4.36,2.05,9.23,3.19,14.37,3.19.29,0,.58,0,.87-.01l.12-19.61c-.46.05-.92.07-1.39.07-7.72,0-13.97-6.26-13.97-13.97v-42.95h13.36c.59,0,1.17.04,1.75.12.19.02.38.05.57.09.15.03.3.06.45.09.18.04.36.08.53.13.12.03.23.06.34.1.3.08.6.18.89.29.17.07.33.13.49.2.18.07.34.15.51.23.5.24.99.51,1.45.81.16.1.31.21.46.31.15.11.3.22.44.33.15.11.29.23.43.35.28.24.55.49.81.75.28.28.55.57.8.88.22.26.42.53.61.81.11.15.21.3.31.46.1.15.2.31.29.47.18.3.34.62.49.94.18.37.34.76.48,1.16.06.15.11.3.15.45.02.05.04.1.05.16.04.12.08.25.11.38-.03-.11-.06-.23-.09-.34l.65,1.57h.01l.04.11,5.49,14.71,12.36,33.12.91,2.43s.01.05.03.08c.24.78.52,1.55.85,2.29,0,.01,0,.02.01.03,3.18,7.38,9.9,12.88,18.03,14.34,1.42.27,2.88.4,4.38.4,1.17,0,2.31-.08,3.44-.25,7.52-1.05,13.93-5.53,17.61-11.81,1.3-2.2,2.26-4.62,2.8-7.2h0s13.05-33.6,13.05-33.6l6.26-16.09.85-2.2c2.11-4.21,6.47-7.1,11.51-7.1h19.16c.34,3.36.51,6.76.51,10.21Z"/>
  <path class="cls-3" d="m110.33,134.36c-.03-.13-.07-.26-.11-.38l.02.04c.03.11.06.23.09.34Z"/>
  <path class="cls-2" d="m197.01,131.95l-.85,2.2c.21-.76.5-1.5.85-2.2Z"/>
  <line class="cls-2" x1="110.24" y1="134.02" x2="110.22" y2="133.98"/>
</svg>